<svg xmlns="http://www.w3.org/2000/svg" xmlns:xlink="http://www.w3.org/1999/xlink" width="456" zoomAndPan="magnify" viewBox="0 0 342 341.999987" height="456" preserveAspectRatio="xMidYMid meet" version="1.0"><defs><filter x="0%" y="0%" width="100%" height="100%" id="c1431b0c48"><feColorMatrix values="0 0 0 0 1 0 0 0 0 1 0 0 0 0 1 0 0 0 1 0" color-interpolation-filters="sRGB"/></filter><g/><mask id="17775f8ceb"><g filter="url(#c1431b0c48)"><rect x="-34.2" width="410.4" fill="#000000" y="-34.199999" height="410.399984" fill-opacity="0.3"/></g></mask><clipPath id="d536200491"><rect x="0" width="218" y="0" height="50"/></clipPath></defs><g mask="url(#17775f8ceb)"><g transform="matrix(1, 0, 0, 1, 62, 146)"><g clip-path="url(#d536200491)"><g fill="#ffffff" fill-opacity="1"><g transform="translate(0.320314, 38.124985)"><g><path d="M 8 0 L 3.34375 0 L 3.34375 -25.703125 L 9.984375 -25.703125 L 16.484375 -6.796875 L 16.859375 -6.796875 L 23.328125 -25.703125 L 29.8125 -25.703125 L 29.8125 0 L 25 0 L 25 -16.984375 L 24.5625 -17.046875 L 18.609375 0 L 14.375 0 L 8.4375 -17.046875 L 8 -16.984375 Z M 8 0 "/></g></g><g transform="translate(33.490233, 38.124985)"><g><path d="M 7.5625 0.375 C 6.320312 0.375 5.242188 0.144531 4.328125 -0.3125 C 3.410156 -0.769531 2.707031 -1.441406 2.21875 -2.328125 C 1.726562 -3.210938 1.484375 -4.273438 1.484375 -5.515625 C 1.484375 -6.671875 1.726562 -7.632812 2.21875 -8.40625 C 2.707031 -9.1875 3.46875 -9.828125 4.5 -10.328125 C 5.53125 -10.828125 6.878906 -11.210938 8.546875 -11.484375 C 9.703125 -11.671875 10.582031 -11.875 11.1875 -12.09375 C 11.789062 -12.3125 12.195312 -12.5625 12.40625 -12.84375 C 12.625 -13.125 12.734375 -13.484375 12.734375 -13.921875 C 12.734375 -14.546875 12.515625 -15.019531 12.078125 -15.34375 C 11.640625 -15.675781 10.921875 -15.84375 9.921875 -15.84375 C 8.835938 -15.84375 7.804688 -15.597656 6.828125 -15.109375 C 5.859375 -14.628906 5.019531 -14 4.3125 -13.21875 L 3.953125 -13.21875 L 1.921875 -16.296875 C 2.898438 -17.390625 4.097656 -18.238281 5.515625 -18.84375 C 6.929688 -19.457031 8.476562 -19.765625 10.15625 -19.765625 C 12.726562 -19.765625 14.585938 -19.21875 15.734375 -18.125 C 16.878906 -17.03125 17.453125 -15.484375 17.453125 -13.484375 L 17.453125 -5.0625 C 17.453125 -4.195312 17.832031 -3.765625 18.59375 -3.765625 C 18.882812 -3.765625 19.171875 -3.816406 19.453125 -3.921875 L 19.703125 -3.84375 L 20.0625 -0.453125 C 19.789062 -0.273438 19.414062 -0.128906 18.9375 -0.015625 C 18.457031 0.0859375 17.925781 0.140625 17.34375 0.140625 C 16.1875 0.140625 15.28125 -0.0820312 14.625 -0.53125 C 13.976562 -0.976562 13.515625 -1.675781 13.234375 -2.625 L 12.875 -2.65625 C 11.914062 -0.632812 10.144531 0.375 7.5625 0.375 Z M 9.109375 -3.265625 C 10.234375 -3.265625 11.128906 -3.640625 11.796875 -4.390625 C 12.472656 -5.148438 12.8125 -6.207031 12.8125 -7.5625 L 12.8125 -9.53125 L 12.484375 -9.59375 C 12.191406 -9.363281 11.804688 -9.164062 11.328125 -9 C 10.859375 -8.84375 10.175781 -8.691406 9.28125 -8.546875 C 8.226562 -8.367188 7.46875 -8.066406 7 -7.640625 C 6.539062 -7.210938 6.3125 -6.601562 6.3125 -5.8125 C 6.3125 -4.988281 6.554688 -4.359375 7.046875 -3.921875 C 7.535156 -3.484375 8.222656 -3.265625 9.109375 -3.265625 Z M 9.109375 -3.265625 "/></g></g><g transform="translate(53.933591, 38.124985)"><g><path d="M 9.078125 0.375 C 7.742188 0.375 6.523438 0.21875 5.421875 -0.09375 C 4.328125 -0.40625 3.390625 -0.832031 2.609375 -1.375 C 1.828125 -1.925781 1.25 -2.550781 0.875 -3.25 L 3.59375 -6.171875 L 3.953125 -6.171875 C 4.597656 -5.304688 5.359375 -4.65625 6.234375 -4.21875 C 7.117188 -3.78125 8.078125 -3.5625 9.109375 -3.5625 C 10.054688 -3.5625 10.769531 -3.734375 11.25 -4.078125 C 11.726562 -4.421875 11.96875 -4.90625 11.96875 -5.53125 C 11.96875 -6.03125 11.796875 -6.445312 11.453125 -6.78125 C 11.109375 -7.113281 10.550781 -7.375 9.78125 -7.5625 L 7.203125 -8.171875 C 5.285156 -8.628906 3.882812 -9.328125 3 -10.265625 C 2.113281 -11.210938 1.671875 -12.414062 1.671875 -13.875 C 1.671875 -15.082031 1.976562 -16.128906 2.59375 -17.015625 C 3.207031 -17.910156 4.070312 -18.59375 5.1875 -19.0625 C 6.3125 -19.53125 7.617188 -19.765625 9.109375 -19.765625 C 10.847656 -19.765625 12.289062 -19.507812 13.4375 -19 C 14.59375 -18.5 15.492188 -17.828125 16.140625 -16.984375 L 13.53125 -14.171875 L 13.1875 -14.171875 C 12.644531 -14.773438 12.035156 -15.21875 11.359375 -15.5 C 10.691406 -15.78125 9.941406 -15.921875 9.109375 -15.921875 C 7.179688 -15.921875 6.21875 -15.328125 6.21875 -14.140625 C 6.21875 -13.628906 6.394531 -13.210938 6.75 -12.890625 C 7.113281 -12.578125 7.75 -12.320312 8.65625 -12.125 L 11.046875 -11.609375 C 13.015625 -11.179688 14.453125 -10.5 15.359375 -9.5625 C 16.265625 -8.632812 16.71875 -7.382812 16.71875 -5.8125 C 16.71875 -4.582031 16.410156 -3.5 15.796875 -2.5625 C 15.191406 -1.625 14.3125 -0.898438 13.15625 -0.390625 C 12.007812 0.117188 10.648438 0.375 9.078125 0.375 Z M 9.078125 0.375 "/></g></g><g transform="translate(71.810543, 38.124985)"><g><path d="M 11.296875 0.375 C 9.421875 0.375 7.765625 -0.015625 6.328125 -0.796875 C 4.890625 -1.578125 3.765625 -2.722656 2.953125 -4.234375 C 2.140625 -5.742188 1.734375 -7.5625 1.734375 -9.6875 C 1.734375 -11.820312 2.140625 -13.644531 2.953125 -15.15625 C 3.765625 -16.664062 4.882812 -17.8125 6.3125 -18.59375 C 7.738281 -19.375 9.375 -19.765625 11.21875 -19.765625 C 15.300781 -19.765625 17.921875 -18.28125 19.078125 -15.3125 L 15.734375 -12.921875 L 15.359375 -12.921875 C 14.960938 -13.835938 14.441406 -14.515625 13.796875 -14.953125 C 13.160156 -15.398438 12.300781 -15.625 11.21875 -15.625 C 9.8125 -15.625 8.710938 -15.132812 7.921875 -14.15625 C 7.140625 -13.1875 6.75 -11.695312 6.75 -9.6875 C 6.75 -7.695312 7.144531 -6.210938 7.9375 -5.234375 C 8.738281 -4.253906 9.859375 -3.765625 11.296875 -3.765625 C 12.359375 -3.765625 13.253906 -4.046875 13.984375 -4.609375 C 14.710938 -5.179688 15.238281 -6 15.5625 -7.0625 L 15.921875 -7.109375 L 19.390625 -5.203125 C 18.898438 -3.566406 17.988281 -2.226562 16.65625 -1.1875 C 15.320312 -0.144531 13.535156 0.375 11.296875 0.375 Z M 11.296875 0.375 "/></g></g><g transform="translate(91.796869, 38.124985)"><g><path d="M 11.265625 0.375 C 9.367188 0.375 7.703125 -0.015625 6.265625 -0.796875 C 4.828125 -1.578125 3.710938 -2.71875 2.921875 -4.21875 C 2.128906 -5.726562 1.734375 -7.550781 1.734375 -9.6875 C 1.734375 -11.820312 2.128906 -13.644531 2.921875 -15.15625 C 3.710938 -16.664062 4.828125 -17.8125 6.265625 -18.59375 C 7.703125 -19.375 9.367188 -19.765625 11.265625 -19.765625 C 13.160156 -19.765625 14.828125 -19.375 16.265625 -18.59375 C 17.703125 -17.8125 18.816406 -16.664062 19.609375 -15.15625 C 20.410156 -13.644531 20.8125 -11.820312 20.8125 -9.6875 C 20.8125 -7.550781 20.410156 -5.726562 19.609375 -4.21875 C 18.816406 -2.71875 17.703125 -1.578125 16.265625 -0.796875 C 14.828125 -0.015625 13.160156 0.375 11.265625 0.375 Z M 11.265625 -3.765625 C 14.273438 -3.765625 15.78125 -5.738281 15.78125 -9.6875 C 15.78125 -11.738281 15.394531 -13.238281 14.625 -14.1875 C 13.851562 -15.144531 12.734375 -15.625 11.265625 -15.625 C 8.253906 -15.625 6.75 -13.644531 6.75 -9.6875 C 6.75 -5.738281 8.253906 -3.765625 11.265625 -3.765625 Z M 11.265625 -3.765625 "/></g></g><g transform="translate(114.332023, 38.124985)"><g><path d="M 13.375 -4.625 L 14.640625 -1.015625 C 14.117188 -0.585938 13.457031 -0.25 12.65625 0 C 11.863281 0.25 10.960938 0.375 9.953125 0.375 C 7.847656 0.375 6.25 -0.195312 5.15625 -1.34375 C 4.070312 -2.488281 3.53125 -4.148438 3.53125 -6.328125 L 3.53125 -15.546875 L 0.578125 -15.546875 L 0.578125 -19.40625 L 3.53125 -19.40625 L 3.53125 -23.1875 L 8.40625 -23.984375 L 8.40625 -19.40625 L 13.90625 -19.40625 L 13.90625 -15.546875 L 8.40625 -15.546875 L 8.40625 -6.6875 C 8.40625 -5.71875 8.601562 -5.015625 9 -4.578125 C 9.394531 -4.140625 9.972656 -3.921875 10.734375 -3.921875 C 11.609375 -3.921875 12.367188 -4.15625 13.015625 -4.625 Z M 13.375 -4.625 "/></g></g><g transform="translate(129.396475, 38.124985)"><g><path d="M 7.5625 0.375 C 6.320312 0.375 5.242188 0.144531 4.328125 -0.3125 C 3.410156 -0.769531 2.707031 -1.441406 2.21875 -2.328125 C 1.726562 -3.210938 1.484375 -4.273438 1.484375 -5.515625 C 1.484375 -6.671875 1.726562 -7.632812 2.21875 -8.40625 C 2.707031 -9.1875 3.46875 -9.828125 4.5 -10.328125 C 5.53125 -10.828125 6.878906 -11.210938 8.546875 -11.484375 C 9.703125 -11.671875 10.582031 -11.875 11.1875 -12.09375 C 11.789062 -12.3125 12.195312 -12.5625 12.40625 -12.84375 C 12.625 -13.125 12.734375 -13.484375 12.734375 -13.921875 C 12.734375 -14.546875 12.515625 -15.019531 12.078125 -15.34375 C 11.640625 -15.675781 10.921875 -15.84375 9.921875 -15.84375 C 8.835938 -15.84375 7.804688 -15.597656 6.828125 -15.109375 C 5.859375 -14.628906 5.019531 -14 4.3125 -13.21875 L 3.953125 -13.21875 L 1.921875 -16.296875 C 2.898438 -17.390625 4.097656 -18.238281 5.515625 -18.84375 C 6.929688 -19.457031 8.476562 -19.765625 10.15625 -19.765625 C 12.726562 -19.765625 14.585938 -19.21875 15.734375 -18.125 C 16.878906 -17.03125 17.453125 -15.484375 17.453125 -13.484375 L 17.453125 -5.0625 C 17.453125 -4.195312 17.832031 -3.765625 18.59375 -3.765625 C 18.882812 -3.765625 19.171875 -3.816406 19.453125 -3.921875 L 19.703125 -3.84375 L 20.0625 -0.453125 C 19.789062 -0.273438 19.414062 -0.128906 18.9375 -0.015625 C 18.457031 0.0859375 17.925781 0.140625 17.34375 0.140625 C 16.1875 0.140625 15.28125 -0.0820312 14.625 -0.53125 C 13.976562 -0.976562 13.515625 -1.675781 13.234375 -2.625 L 12.875 -2.65625 C 11.914062 -0.632812 10.144531 0.375 7.5625 0.375 Z M 9.109375 -3.265625 C 10.234375 -3.265625 11.128906 -3.640625 11.796875 -4.390625 C 12.472656 -5.148438 12.8125 -6.207031 12.8125 -7.5625 L 12.8125 -9.53125 L 12.484375 -9.59375 C 12.191406 -9.363281 11.804688 -9.164062 11.328125 -9 C 10.859375 -8.84375 10.175781 -8.691406 9.28125 -8.546875 C 8.226562 -8.367188 7.46875 -8.066406 7 -7.640625 C 6.539062 -7.210938 6.3125 -6.601562 6.3125 -5.8125 C 6.3125 -4.988281 6.554688 -4.359375 7.046875 -3.921875 C 7.535156 -3.484375 8.222656 -3.265625 9.109375 -3.265625 Z M 9.109375 -3.265625 "/></g></g><g transform="translate(149.839833, 38.124985)"><g><path d="M 3.34375 0 L 3.34375 -25.703125 L 13.65625 -25.703125 C 16.320312 -25.703125 18.328125 -25.085938 19.671875 -23.859375 C 21.023438 -22.640625 21.703125 -20.953125 21.703125 -18.796875 C 21.703125 -17.234375 21.304688 -15.953125 20.515625 -14.953125 C 19.734375 -13.960938 18.554688 -13.203125 16.984375 -12.671875 L 16.984375 -12.3125 C 17.785156 -11.957031 18.4375 -11.429688 18.9375 -10.734375 C 19.4375 -10.046875 19.910156 -9.023438 20.359375 -7.671875 L 22.921875 0 L 17.703125 0 L 15.1875 -7.6875 C 14.925781 -8.457031 14.632812 -9.054688 14.3125 -9.484375 C 13.988281 -9.910156 13.578125 -10.21875 13.078125 -10.40625 C 12.585938 -10.601562 11.941406 -10.703125 11.140625 -10.703125 L 8.421875 -10.703125 L 8.421875 0 Z M 13.046875 -14.734375 C 15.503906 -14.734375 16.734375 -15.878906 16.734375 -18.171875 C 16.734375 -20.503906 15.503906 -21.671875 13.046875 -21.671875 L 8.421875 -21.671875 L 8.421875 -14.734375 Z M 13.046875 -14.734375 "/></g></g></g><g fill="#ffffff" fill-opacity="1"><g transform="translate(173.359363, 38.124985)"><g><path d="M 19.15625 -8.59375 L 6.703125 -8.59375 C 6.835938 -6.90625 7.316406 -5.675781 8.140625 -4.90625 C 8.960938 -4.144531 10.082031 -3.765625 11.5 -3.765625 C 12.613281 -3.765625 13.515625 -3.972656 14.203125 -4.390625 C 14.890625 -4.804688 15.445312 -5.4375 15.875 -6.28125 L 16.25 -6.28125 L 19.484375 -4.203125 C 18.847656 -2.835938 17.890625 -1.734375 16.609375 -0.890625 C 15.335938 -0.046875 13.632812 0.375 11.5 0.375 C 9.488281 0.375 7.753906 -0.00390625 6.296875 -0.765625 C 4.835938 -1.535156 3.710938 -2.671875 2.921875 -4.171875 C 2.128906 -5.679688 1.734375 -7.519531 1.734375 -9.6875 C 1.734375 -11.882812 2.148438 -13.738281 2.984375 -15.25 C 3.816406 -16.769531 4.941406 -17.898438 6.359375 -18.640625 C 7.773438 -19.390625 9.367188 -19.765625 11.140625 -19.765625 C 13.890625 -19.765625 15.992188 -19.035156 17.453125 -17.578125 C 18.910156 -16.128906 19.640625 -14 19.640625 -11.1875 C 19.640625 -10.164062 19.601562 -9.375 19.53125 -8.8125 Z M 14.984375 -11.75 C 14.929688 -13.21875 14.582031 -14.289062 13.9375 -14.96875 C 13.300781 -15.644531 12.367188 -15.984375 11.140625 -15.984375 C 8.679688 -15.984375 7.234375 -14.570312 6.796875 -11.75 Z M 14.984375 -11.75 "/></g></g><g transform="translate(194.435533, 38.124985)"><g><path d="M 9.578125 0.375 C 8.046875 0.375 6.691406 0.00390625 5.515625 -0.734375 C 4.335938 -1.484375 3.410156 -2.609375 2.734375 -4.109375 C 2.066406 -5.617188 1.734375 -7.476562 1.734375 -9.6875 C 1.734375 -11.90625 2.078125 -13.765625 2.765625 -15.265625 C 3.453125 -16.773438 4.398438 -17.898438 5.609375 -18.640625 C 6.828125 -19.390625 8.234375 -19.765625 9.828125 -19.765625 C 11.035156 -19.765625 12.082031 -19.554688 12.96875 -19.140625 C 13.851562 -18.722656 14.597656 -18.070312 15.203125 -17.1875 L 15.578125 -17.28125 L 15.578125 -27.171875 L 20.4375 -27.171875 L 20.4375 0 L 15.578125 0 L 15.578125 -2.515625 L 15.203125 -2.578125 C 14.660156 -1.671875 13.921875 -0.953125 12.984375 -0.421875 C 12.046875 0.109375 10.910156 0.375 9.578125 0.375 Z M 11.15625 -3.765625 C 12.53125 -3.765625 13.613281 -4.253906 14.40625 -5.234375 C 15.207031 -6.210938 15.609375 -7.695312 15.609375 -9.6875 C 15.609375 -11.675781 15.207031 -13.160156 14.40625 -14.140625 C 13.613281 -15.128906 12.53125 -15.625 11.15625 -15.625 C 9.726562 -15.625 8.632812 -15.144531 7.875 -14.1875 C 7.125 -13.238281 6.75 -11.738281 6.75 -9.6875 C 6.75 -7.644531 7.125 -6.144531 7.875 -5.1875 C 8.632812 -4.238281 9.726562 -3.765625 11.15625 -3.765625 Z M 11.15625 -3.765625 "/></g></g></g></g></g></g></svg>